<?xml version="1.0" standalone="no"?>
<!DOCTYPE svg PUBLIC "-//W3C//DTD SVG 20010904//EN"
 "http://www.w3.org/TR/2001/REC-SVG-20010904/DTD/svg10.dtd">
<svg version="1.0" xmlns="http://www.w3.org/2000/svg"
 width="1024.000000pt" height="768.000000pt" viewBox="0 0 1024.000000 768.000000"
 preserveAspectRatio="xMidYMid meet">

<g transform="translate(0.000000,768.000000) scale(0.100000,-0.100000)"
fill="#000000" stroke="none">
<path d="M0 3840 l0 -3840 5120 0 5120 0 0 3840 0 3840 -5120 0 -5120 0 0
-3840z m5258 2610 c86 -43 123 -89 170 -211 9 -23 18 -27 71 -33 34 -4 126
-25 204 -47 299 -83 349 -85 481 -23 85 41 136 42 185 6 97 -71 92 -187 -12
-278 -149 -131 -366 -157 -682 -80 -82 20 -189 39 -236 43 l-86 6 -18 -47
c-16 -42 -17 -69 -11 -259 9 -281 21 -429 58 -682 16 -115 32 -229 35 -252 5
-42 7 -43 42 -43 20 0 113 -12 206 -25 94 -14 173 -25 177 -25 4 0 -13 29 -37
63 -133 190 -141 326 -26 404 20 13 49 23 70 23 34 0 37 3 55 48 29 70 122
220 193 309 63 80 171 188 327 328 103 92 146 152 146 205 0 65 27 136 65 169
119 104 285 25 285 -136 0 -27 7 -73 16 -103 14 -48 31 -69 166 -204 163 -163
227 -238 307 -358 50 -74 113 -196 124 -238 4 -15 13 -20 40 -20 41 0 93 -33
124 -79 53 -78 17 -214 -98 -366 -56 -75 -151 -170 -206 -207 -29 -20 -33 -29
-33 -66 0 -58 -19 -99 -70 -150 -61 -60 -131 -105 -225 -143 -191 -76 -375
-88 -657 -40 -157 27 -321 49 -484 66 -59 6 -63 9 -109 62 l-48 55 59 -6 c32
-3 93 -8 134 -12 74 -6 383 -49 575 -80 193 -31 381 -3 551 81 100 49 164 108
164 150 0 25 -10 32 -64 50 -15 4 0 18 73 65 148 96 248 201 325 342 65 117
42 188 -57 175 -24 -3 -50 -9 -59 -12 -12 -5 -17 4 -22 46 -10 71 -61 179
-143 303 -49 73 -119 153 -249 287 -105 107 -191 204 -204 230 -16 31 -25 70
-29 133 -6 76 -10 91 -30 107 -54 44 -106 5 -116 -87 -14 -132 -31 -158 -246
-354 -165 -151 -247 -241 -324 -355 -64 -96 -123 -216 -132 -268 l-6 -38 -66
7 c-57 5 -68 3 -83 -12 -34 -39 -31 -65 16 -160 73 -145 235 -302 394 -383 23
-12 42 -23 42 -24 0 -2 -66 12 -147 30 -289 65 -596 113 -725 113 -24 0 -48 4
-54 8 -12 7 -74 418 -94 612 -18 184 -30 420 -30 591 0 139 3 169 16 180 8 7
25 30 36 52 l20 40 121 -6 c93 -4 166 -15 303 -46 136 -31 203 -41 267 -41
137 0 278 53 332 125 30 39 32 66 4 90 -22 21 -13 23 -139 -31 -57 -25 -77
-28 -165 -28 -103 1 -161 12 -336 65 -76 23 -302 69 -339 69 -4 0 -10 27 -13
61 -6 70 -33 116 -91 157 -34 23 -49 27 -110 27 -60 0 -77 -4 -112 -27 -54
-35 -94 -112 -94 -183 l0 -51 -117 -27 c-65 -15 -185 -54 -267 -87 -280 -113
-367 -129 -496 -95 -61 16 -85 13 -100 -16 -28 -52 59 -120 178 -141 102 -17
207 0 382 63 187 67 278 90 382 96 l86 6 15 -30 c9 -16 23 -35 31 -42 28 -24
20 -500 -14 -796 -24 -205 -84 -581 -94 -587 -6 -4 -34 -8 -61 -8 -121 0 -413
-46 -683 -106 -84 -19 -158 -34 -165 -34 -6 1 11 13 38 27 130 68 295 222 365
343 53 92 65 134 50 171 -18 42 -50 46 -150 20 -47 -12 -90 -21 -97 -21 -7 0
-11 17 -10 46 2 38 -2 49 -25 69 l-27 23 55 55 c44 44 54 60 54 88 0 40 -30
93 -62 110 -13 6 -25 13 -27 15 -3 2 14 20 35 38 22 19 51 55 64 79 20 38 23
51 14 83 -10 43 -60 84 -100 84 -13 0 -24 4 -24 8 0 5 -6 16 -13 26 -11 15
-17 16 -40 5 -24 -11 -29 -10 -48 16 -19 23 -27 26 -56 22 -81 -14 -148 -106
-141 -197 l3 -49 -55 2 c-30 1 -62 -2 -71 -6 -13 -7 -17 -1 -22 30 -11 65 -27
78 -97 78 -83 -1 -99 -20 -79 -94 3 -10 -8 -17 -34 -22 -51 -12 -111 -43 -155
-83 l-37 -33 -140 75 c-335 178 -443 230 -469 225 -86 -17 -88 -149 -6 -253
29 -37 30 -39 10 -45 -80 -25 -62 -181 36 -309 18 -24 34 -47 34 -51 0 -3 -23
-3 -50 1 -56 7 -83 -7 -94 -51 -24 -97 185 -358 382 -477 87 -52 87 -52 54
-59 -77 -16 -81 -54 -13 -120 93 -90 274 -155 460 -166 81 -4 139 1 366 35
272 41 387 56 524 67 l74 7 -49 -55 c-48 -54 -51 -55 -114 -62 -103 -11 -414
-54 -538 -76 -265 -45 -503 -10 -691 100 -129 77 -181 142 -181 229 0 50 -1
52 -47 84 -63 42 -176 159 -223 228 -113 167 -135 280 -68 356 l30 34 -22 62
c-30 87 -34 143 -13 203 l18 50 -28 55 c-25 47 -28 63 -24 113 10 115 95 201
197 200 38 0 81 -19 270 -117 124 -65 241 -127 261 -138 l36 -20 43 31 c24 17
51 31 62 31 13 0 25 14 38 44 44 104 210 139 304 65 15 -12 28 -20 30 -18 1 2
13 25 25 51 21 44 75 103 116 126 17 9 15 14 -22 56 -23 26 -44 61 -47 81 -13
69 24 139 91 174 30 15 80 14 139 -4 99 -30 170 -17 399 75 66 27 172 64 235
83 l114 35 14 52 c47 188 258 285 430 200z m-41 -183 c57 -63 55 -140 -8 -293
-17 -44 -38 -95 -45 -114 -16 -43 -18 -346 -4 -565 12 -183 44 -485 70 -660
30 -196 43 -175 -111 -175 -119 0 -130 1 -125 18 9 31 66 440 82 585 8 78 18
284 21 458 l6 316 -45 99 c-50 109 -73 199 -65 252 19 115 149 161 224 79z
m248 -228 c33 -6 146 -33 250 -62 177 -48 198 -51 307 -52 79 0 109 -3 90 -8
-36 -12 -215 -12 -233 -1 -8 4 -25 7 -38 5 -16 -2 -21 1 -16 10 6 9 2 11 -13
7 -11 -3 -74 5 -139 19 -67 13 -173 26 -246 30 -124 6 -127 6 -121 27 15 48
19 49 159 25z m-525 -13 c0 -8 3 -21 6 -29 4 -12 -7 -17 -53 -22 -117 -13
-261 -47 -393 -95 -152 -54 -256 -78 -271 -63 -7 7 6 12 38 16 26 4 84 20 128
38 44 17 121 47 170 66 118 47 301 101 343 102 21 1 32 -4 32 -13z m1845 -323
c15 -34 56 -86 114 -146 50 -52 89 -97 86 -100 -3 -4 -2 -5 2 -2 4 3 24 -11
44 -31 l38 -37 -31 -16 c-42 -21 -46 -39 -12 -52 34 -12 74 2 74 27 0 23 134
-147 182 -231 4 -6 -13 -11 -41 -11 -58 -2 -98 -22 -137 -66 -27 -31 -32 -33
-85 -30 -37 3 -67 -2 -87 -12 -16 -8 -33 -12 -37 -8 -5 4 -5 2 -2 -4 3 -6 -2
-17 -12 -26 -10 -8 -25 -26 -35 -39 l-17 -24 -29 35 c-30 37 -32 54 -2 27 13
-12 21 -13 32 -6 12 9 12 10 -2 5 -10 -3 -18 -2 -18 3 0 4 -12 13 -26 19 -14
7 -23 8 -19 2 8 -13 -1 -13 -26 0 -10 6 -44 15 -76 21 -73 14 -128 -1 -183
-49 -23 -19 -40 -28 -38 -21 5 23 -60 116 -97 139 -50 31 -125 51 -165 43
l-34 -6 18 29 c63 99 198 245 379 410 135 123 183 192 194 277 l7 62 8 -65 c5
-36 20 -89 33 -117z m-2596 111 c8 -7 -74 -2 -99 6 -16 5 -2 6 35 3 33 -3 62
-7 64 -9z m-1232 -491 c5 4 10 0 10 -8 0 -12 -5 -11 -30 1 -16 9 -35 13 -43
10 -8 -3 -14 -1 -14 4 0 6 5 10 11 10 5 0 7 5 3 11 -4 7 7 2 24 -11 16 -12 34
-20 39 -17z m1153 23 c0 -2 -8 -10 -17 -17 -16 -13 -17 -12 -4 4 13 16 21 21
21 13z m-1174 -48 c33 -12 52 -47 37 -71 -4 -6 -6 -24 -5 -39 1 -15 -2 -28 -6
-28 -15 0 -44 38 -38 49 8 12 -6 42 -30 65 -14 15 -14 16 3 16 15 0 16 2 3 10
-21 13 -3 12 36 -2z m614 -26 c0 -13 -12 -23 -42 -31 -29 -9 -60 -32 -100 -72
-63 -64 -76 -71 -72 -36 1 12 3 25 3 29 2 17 77 91 110 108 48 26 101 26 101
2z m219 -32 c27 -14 35 -40 13 -40 -26 0 -56 25 -48 38 9 14 12 15 35 2z
m-950 -96 c14 -13 22 -26 19 -29 -3 -3 -28 -8 -57 -12 l-51 -6 0 30 c0 57 40
65 89 17z m181 6 c5 8 9 5 13 -9 3 -12 0 -19 -7 -18 -13 2 -26 18 -25 32 0 6
3 4 6 -4 4 -10 7 -10 13 -1z m-84 -87 c24 -16 43 -30 44 -33 0 -8 -128 -70
-145 -70 -14 0 -65 77 -65 98 0 7 12 12 28 13 15 0 36 4 47 9 32 14 45 11 91
-17z m3383 -33 c75 -38 111 -112 91 -185 -15 -53 -45 -72 -38 -25 4 28 2 30
-28 30 -18 0 -40 3 -48 6 -12 5 -16 1 -14 -16 2 -13 -3 -25 -9 -27 -7 -3 -13
1 -13 9 0 7 -5 20 -10 28 -8 13 -12 12 -25 -7 -20 -29 -35 -29 -32 -2 3 27
-16 35 -36 14 -32 -31 -97 -11 -97 31 0 54 50 136 95 154 38 16 124 11 164
-10z m1039 -25 c35 -38 41 -66 27 -131 -4 -18 -16 -24 -68 -33 -100 -17 -100
-17 -130 44 -41 84 -35 117 28 150 46 24 103 12 143 -30z m-4310 -11 c18 -8
32 -19 32 -22 0 -13 -128 -122 -143 -122 -12 0 -77 62 -77 74 0 2 24 15 53 29
28 14 61 32 72 41 25 19 25 19 63 0z m105 -48 c17 -13 16 -17 -19 -70 -34 -51
-40 -56 -73 -55 -77 1 -78 9 -5 77 36 34 69 62 73 62 3 0 14 -7 24 -14z m3574
-17 c50 -24 93 -81 93 -121 0 -22 -5 -28 -21 -28 -11 0 -17 5 -14 10 8 13 -3
50 -15 50 -5 0 -25 -13 -43 -30 -26 -23 -44 -30 -75 -30 l-40 0 5 39 c6 43
-10 81 -34 81 -18 0 -63 -45 -63 -63 0 -7 10 -17 22 -22 43 -19 34 -36 -18
-34 -27 1 -52 4 -56 6 -11 6 19 74 45 102 29 32 94 61 136 61 19 0 54 -9 78
-21z m365 -20 c36 -35 40 -43 26 -48 -13 -4 -15 -10 -8 -21 13 -21 12 -31 -2
-29 -7 1 -21 -1 -30 -5 -30 -14 -63 -3 -66 22 -3 19 -9 23 -30 20 -18 -2 -27
-9 -27 -20 0 -10 -6 -23 -14 -30 -10 -10 -12 -10 -7 0 4 6 2 12 -3 12 -6 0
-11 19 -11 43 0 34 6 49 27 68 14 13 22 17 18 9 -7 -12 -6 -13 6 -3 8 6 28 13
44 16 17 2 31 5 32 6 2 0 22 -18 45 -40z m-3831 -15 c4 -2 -4 -25 -19 -49 -22
-37 -32 -45 -57 -45 -27 0 -75 19 -49 20 6 0 16 12 23 28 28 62 39 72 67 61
15 -5 31 -12 35 -15z m39 -85 c0 -13 -7 -19 -21 -19 -11 0 -18 3 -16 8 2 4 7
15 10 25 8 22 27 13 27 -14z m-444 -39 c194 -46 390 -63 699 -63 306 0 463 14
713 64 57 11 106 19 108 16 2 -2 -18 -37 -44 -78 -125 -190 -356 -340 -602
-391 -362 -75 -771 108 -969 435 -27 45 -26 45 95 17z m3176 0 c238 -56 643
-83 928 -61 176 13 396 43 495 66 88 20 87 20 70 -21 -37 -88 -175 -232 -291
-302 -258 -155 -536 -193 -789 -107 -142 49 -308 156 -402 259 -46 51 -123
162 -123 178 0 12 20 10 112 -12z m-699 -390 c222 -11 439 -41 717 -101 549
-117 749 -128 974 -50 60 21 79 19 106 -14 11 -13 10 -14 -5 -9 -13 5 -16 4
-11 -4 5 -8 -15 -22 -59 -42 -198 -89 -323 -95 -700 -36 -398 63 -913 107
-1229 107 -313 -1 -819 -47 -1221 -112 -362 -59 -561 -38 -736 78 -35 23 -38
28 -23 34 34 14 74 9 152 -16 204 -66 395 -51 1012 79 228 48 445 77 640 86
91 4 170 7 175 8 6 1 99 -3 208 -8z m166 -245 c99 -16 208 -66 266 -121 36
-34 38 -38 20 -42 -11 -3 -103 1 -205 9 -237 18 -683 16 -915 -4 -99 -9 -182
-13 -185 -10 -9 10 88 90 142 116 75 37 173 57 318 67 157 10 449 2 559 -15z
m-1459 -465 c30 -16 40 -74 40 -237 0 -95 4 -153 10 -153 6 0 10 4 10 9 0 5
38 44 85 85 95 84 128 95 172 54 39 -36 30 -63 -48 -144 -53 -54 -69 -77 -62
-86 5 -7 44 -56 85 -108 94 -119 99 -131 59 -170 -29 -29 -61 -37 -95 -24 -9
4 -55 56 -103 116 -76 98 -87 108 -101 95 -10 -10 -17 -42 -19 -89 -3 -40 -11
-83 -19 -95 -17 -27 -73 -39 -104 -23 -46 25 -50 57 -50 395 0 376 1 382 88
384 18 1 42 -4 52 -9z m1385 -15 l25 -24 0 -335 c0 -228 -4 -343 -11 -360 -23
-49 -97 -57 -136 -14 -17 18 -18 48 -21 364 l-3 344 25 25 c34 34 88 34 121 0z
m1406 6 l24 -19 0 -344 c0 -381 -1 -389 -64 -403 -33 -7 -85 15 -95 40 -3 9
-6 172 -6 361 0 331 1 345 20 364 26 26 89 27 121 1z m856 -16 c13 -15 23 -39
23 -57 0 -80 -43 -405 -56 -425 -20 -32 -78 -32 -95 -1 -13 25 -49 322 -48
408 0 30 6 63 13 72 34 45 126 47 163 3z m-1109 -28 c15 -15 22 -32 22 -59 0
-94 -121 -123 -164 -40 -45 88 67 166 142 99z m-3754 -18 c25 -29 26 -36 26
-145 l0 -114 110 0 110 0 0 114 c0 109 1 116 26 145 34 40 89 43 131 7 l28
-24 0 -310 c0 -298 -1 -312 -21 -338 -29 -39 -65 -49 -107 -29 -48 22 -57 50
-57 170 l0 105 -109 0 -109 0 -3 -114 c-4 -105 -6 -117 -28 -140 -18 -19 -35
-26 -62 -26 -97 0 -99 6 -99 369 l0 299 26 31 c21 26 33 31 69 31 36 0 48 -5
69 -31z m3111 7 c26 -26 42 -125 31 -202 -3 -24 -2 -44 3 -44 4 0 37 33 72 73
149 170 180 197 217 197 49 0 82 -32 82 -79 0 -32 -12 -49 -100 -144 -55 -59
-100 -110 -100 -115 0 -4 39 -56 86 -117 165 -212 161 -204 120 -252 -19 -22
-33 -28 -64 -28 -51 0 -63 11 -175 160 -50 66 -92 122 -94 125 -2 2 -15 -9
-28 -25 -21 -26 -24 -41 -25 -110 0 -90 -13 -124 -53 -143 -22 -11 -35 -11
-62 -2 -64 21 -66 32 -63 381 l3 311 24 19 c34 28 96 25 126 -5z m-2250 -185
c49 -23 99 -75 114 -120 6 -20 11 -103 11 -202 l0 -168 -27 -21 c-34 -26 -78
-21 -108 13 l-21 23 -39 -25 c-31 -21 -50 -26 -99 -26 -72 1 -114 20 -153 71
-23 30 -28 47 -28 93 1 69 23 111 79 143 35 20 55 23 139 23 l98 0 -6 25 c-10
40 -30 53 -84 54 -36 1 -63 -6 -96 -24 -45 -24 -45 -24 -64 -5 -11 11 -23 32
-27 48 -5 23 -1 33 29 61 20 19 53 38 74 44 64 17 164 14 208 -7z m1368 8 c49
-13 115 -73 138 -124 10 -22 19 -61 19 -86 0 -81 -57 -109 -226 -111 -106 -2
-117 -13 -55 -55 42 -29 93 -30 167 -4 63 23 77 20 93 -15 16 -37 14 -58 -12
-82 -63 -60 -208 -75 -305 -33 -105 47 -172 163 -158 275 22 175 175 281 339
235z m2242 -13 c56 -26 119 -90 142 -145 18 -42 20 -153 3 -195 -41 -108 -144
-180 -254 -179 -101 1 -179 48 -234 142 -24 40 -27 57 -27 132 0 78 3 90 30
134 76 122 217 169 340 111z m-724 -16 l30 -30 -3 -216 -3 -216 -28 -24 c-38
-32 -72 -31 -108 5 l-29 29 0 212 c0 220 4 244 43 260 40 16 68 10 98 -20z
m1107 -354 c7 -7 16 -32 19 -54 5 -36 2 -45 -25 -72 -41 -40 -83 -41 -123 -1
-48 49 -37 120 23 146 34 14 82 6 106 -19z m-2088 -841 c395 -27 543 -55 690
-131 70 -37 107 -67 165 -138 51 -63 75 -131 75 -218 0 -91 -28 -144 -98 -185
l-47 -28 -1166 0 -1165 1 -48 28 c-97 57 -123 189 -62 321 16 34 50 81 88 119
99 99 237 156 458 190 104 16 566 46 835 54 33 1 157 -5 275 -13z"/>
<path d="M4755 5785 c-55 -13 -146 -41 -203 -64 -97 -38 -177 -60 -282 -79
l-45 -8 45 -24 c63 -36 100 -93 107 -166 5 -53 2 -66 -29 -124 -32 -61 -33
-67 -19 -95 27 -55 26 -124 -3 -178 -14 -26 -26 -51 -26 -56 0 -4 36 -7 81 -6
l80 0 39 -41 c48 -52 64 -106 50 -169 -13 -60 -61 -156 -111 -222 -22 -29 -36
-53 -32 -53 5 0 87 11 183 25 96 14 189 25 205 25 l30 0 33 223 c47 311 61
467 69 732 7 264 1 306 -45 304 -15 0 -72 -11 -127 -24z"/>
<path d="M6394 5372 c-22 -21 -13 -35 34 -52 38 -13 43 -13 59 3 16 15 16 18
-1 36 -23 25 -73 32 -92 13z"/>
<path d="M6696 5334 c-34 -34 -6 -56 65 -52 96 6 89 68 -7 68 -25 0 -49 -6
-58 -16z"/>
<path d="M2930 5201 c0 -5 7 -12 16 -15 14 -5 15 -4 4 9 -14 17 -20 19 -20 6z"/>
<path d="M6235 5025 c-5 -2 -22 -6 -37 -9 -32 -7 -35 -24 -13 -66 18 -36 30
-38 46 -9 28 53 30 91 4 84z"/>
<path d="M6098 4968 c-36 -57 -27 -78 34 -78 25 0 41 5 44 14 5 14 -43 86 -57
86 -4 0 -13 -10 -21 -22z"/>
<path d="M6267 4951 c-29 -49 -23 -61 28 -61 42 0 45 2 45 26 0 64 -43 85 -73
35z"/>
<path d="M7220 4955 c0 -8 9 -15 20 -15 11 0 20 7 20 15 0 8 -9 15 -20 15 -11
0 -20 -7 -20 -15z"/>
<path d="M7300 4915 c-10 -12 -9 -16 5 -21 19 -8 40 9 31 25 -10 15 -21 14
-36 -4z"/>
<path d="M6636 4904 c-10 -26 -7 -104 4 -104 15 0 80 61 80 75 0 11 -26 27
-62 38 -9 3 -19 -1 -22 -9z"/>
<path d="M7013 4903 c-15 -3 -23 -12 -23 -24 0 -30 45 -22 46 9 1 12 1 21 0
21 0 -1 -11 -4 -23 -6z"/>
<path d="M3503 3115 c-25 -18 -31 -63 -11 -83 18 -18 83 -15 107 6 12 10 22
31 23 52 l3 35 -50 3 c-33 2 -57 -3 -72 -13z"/>
<path d="M4903 3295 c-11 -8 -26 -28 -32 -45 l-10 -31 82 3 c76 3 82 5 85 25
7 51 -75 83 -125 48z"/>
<path d="M7117 3279 c-44 -26 -61 -122 -32 -179 40 -78 146 -62 175 26 26 77
-22 164 -88 164 -21 0 -45 -5 -55 -11z"/>
<path d="M4935 2099 c-443 -26 -581 -46 -710 -100 -157 -65 -263 -212 -234
-322 5 -20 20 -43 32 -51 18 -11 178 -14 942 -17 506 -2 1023 -2 1148 -1 l229
2 29 29 c32 32 38 82 19 151 -14 52 -97 147 -160 186 -170 104 -732 157 -1295
123z"/>
</g>
</svg>
